<svg xmlns="http://www.w3.org/2000/svg" xmlns:xlink="http://www.w3.org/1999/xlink" width="2000" zoomAndPan="magnify" viewBox="0 0 1500 1499.999933" height="2000" preserveAspectRatio="xMidYMid meet" version="1.2"><defs><clipPath id="283306e727"><path d="M 0 75 L 0 1425 C 0 1466.421875 33.578125 1500 75 1500 L 1425 1500 C 1466.421875 1500 1500 1466.421875 1500 1425 L 1500 75 C 1500 33.578125 1466.421875 0 1425 0 L 75 0 C 33.578125 0 0 33.578125 0 75 Z M 0 75 "/></clipPath><clipPath id="1753f55c6b"><path d="M 186.152344 264.351562 L 1314 264.351562 L 1314 1235.648438 L 186.152344 1235.648438 Z M 186.152344 264.351562 "/></clipPath><clipPath id="14b6b83606"><path d="M 261.152344 264.351562 L 1238.847656 264.351562 C 1280.265625 264.351562 1313.847656 297.929688 1313.847656 339.351562 L 1313.847656 1160.648438 C 1313.847656 1202.070312 1280.265625 1235.648438 1238.847656 1235.648438 L 261.152344 1235.648438 C 219.734375 1235.648438 186.152344 1202.070312 186.152344 1160.648438 L 186.152344 339.351562 C 186.152344 297.929688 219.734375 264.351562 261.152344 264.351562 Z M 261.152344 264.351562 "/></clipPath></defs><g id="9094e0a860"><g clip-rule="nonzero" clip-path="url(#283306e727)"><path style=" stroke:none;fill-rule:nonzero;fill:#1487b8;fill-opacity:1;" d="M 1500 750 C 1500 762.273438 1499.699219 774.542969 1499.097656 786.800781 C 1498.492188 799.058594 1497.589844 811.296875 1496.386719 823.511719 C 1495.183594 835.726562 1493.683594 847.90625 1491.882812 860.046875 C 1490.082031 872.1875 1487.984375 884.277344 1485.589844 896.316406 C 1483.195312 908.355469 1480.503906 920.328125 1477.523438 932.234375 C 1474.539062 944.140625 1471.269531 955.96875 1467.703125 967.714844 C 1464.140625 979.460938 1460.292969 991.109375 1456.15625 1002.667969 C 1452.023438 1014.222656 1447.605469 1025.671875 1442.910156 1037.011719 C 1438.210938 1048.351562 1433.238281 1059.570312 1427.992188 1070.667969 C 1422.742188 1081.761719 1417.226562 1092.722656 1411.441406 1103.546875 C 1405.65625 1114.371094 1399.605469 1125.046875 1393.296875 1135.578125 C 1386.984375 1146.105469 1380.421875 1156.472656 1373.601562 1166.675781 C 1366.78125 1176.882812 1359.71875 1186.914062 1352.40625 1196.773438 C 1345.09375 1206.632812 1337.542969 1216.304688 1329.757812 1225.792969 C 1321.972656 1235.28125 1313.957031 1244.574219 1305.714844 1253.667969 C 1297.46875 1262.761719 1289.007812 1271.652344 1280.328125 1280.328125 C 1271.652344 1289.007812 1262.761719 1297.46875 1253.667969 1305.714844 C 1244.574219 1313.957031 1235.28125 1321.972656 1225.792969 1329.757812 C 1216.304688 1337.542969 1206.632812 1345.09375 1196.773438 1352.40625 C 1186.914062 1359.71875 1176.882812 1366.78125 1166.675781 1373.601562 C 1156.472656 1380.421875 1146.105469 1386.984375 1135.578125 1393.296875 C 1125.046875 1399.605469 1114.371094 1405.65625 1103.546875 1411.441406 C 1092.722656 1417.226562 1081.761719 1422.742188 1070.664062 1427.992188 C 1059.570312 1433.238281 1048.351562 1438.210938 1037.011719 1442.910156 C 1025.671875 1447.605469 1014.222656 1452.023438 1002.667969 1456.15625 C 991.109375 1460.292969 979.457031 1464.140625 967.714844 1467.703125 C 955.96875 1471.269531 944.140625 1474.539062 932.234375 1477.523438 C 920.328125 1480.503906 908.355469 1483.195312 896.316406 1485.589844 C 884.277344 1487.984375 872.1875 1490.082031 860.046875 1491.882812 C 847.90625 1493.683594 835.726562 1495.183594 823.511719 1496.386719 C 811.296875 1497.589844 799.058594 1498.492188 786.800781 1499.097656 C 774.542969 1499.699219 762.273438 1500 750 1500 C 737.726562 1500 725.457031 1499.699219 713.199219 1499.097656 C 700.941406 1498.496094 688.703125 1497.589844 676.488281 1496.386719 C 664.273438 1495.183594 652.09375 1493.683594 639.953125 1491.882812 C 627.808594 1490.082031 615.71875 1487.984375 603.683594 1485.589844 C 591.644531 1483.195312 579.671875 1480.503906 567.765625 1477.523438 C 555.859375 1474.539062 544.03125 1471.269531 532.285156 1467.703125 C 520.539062 1464.140625 508.890625 1460.292969 497.332031 1456.15625 C 485.777344 1452.023438 474.328125 1447.605469 462.988281 1442.910156 C 451.648438 1438.210938 440.429688 1433.238281 429.332031 1427.992188 C 418.238281 1422.742188 407.277344 1417.226562 396.453125 1411.441406 C 385.628906 1405.65625 374.949219 1399.605469 364.421875 1393.296875 C 353.894531 1386.984375 343.527344 1380.421875 333.320312 1373.601562 C 323.117188 1366.78125 313.085938 1359.71875 303.226562 1352.40625 C 293.367188 1345.09375 283.691406 1337.542969 274.203125 1329.757812 C 264.714844 1321.972656 255.425781 1313.957031 246.332031 1305.714844 C 237.234375 1297.46875 228.347656 1289.007812 219.667969 1280.328125 C 210.992188 1271.652344 202.53125 1262.761719 194.285156 1253.667969 C 186.042969 1244.574219 178.027344 1235.28125 170.242188 1225.792969 C 162.457031 1216.304688 154.90625 1206.632812 147.59375 1196.773438 C 140.28125 1186.914062 133.21875 1176.882812 126.398438 1166.675781 C 119.578125 1156.472656 113.015625 1146.105469 106.703125 1135.578125 C 100.394531 1125.046875 94.34375 1114.371094 88.558594 1103.546875 C 82.773438 1092.722656 77.257812 1081.761719 72.007812 1070.664062 C 66.761719 1059.570312 61.789062 1048.351562 57.089844 1037.011719 C 52.394531 1025.671875 47.976562 1014.222656 43.84375 1002.667969 C 39.707031 991.109375 35.859375 979.457031 32.292969 967.714844 C 28.730469 955.96875 25.457031 944.140625 22.476562 932.234375 C 19.492188 920.328125 16.804688 908.355469 14.410156 896.316406 C 12.015625 884.277344 9.917969 872.1875 8.117188 860.046875 C 6.316406 847.90625 4.816406 835.726562 3.613281 823.511719 C 2.410156 811.296875 1.503906 799.058594 0.902344 786.800781 C 0.300781 774.542969 0 762.273438 0 750 C 0 737.726562 0.300781 725.457031 0.902344 713.199219 C 1.503906 700.941406 2.410156 688.703125 3.613281 676.488281 C 4.816406 664.273438 6.316406 652.09375 8.117188 639.953125 C 9.917969 627.808594 12.015625 615.71875 14.410156 603.683594 C 16.804688 591.644531 19.492188 579.671875 22.476562 567.765625 C 25.457031 555.859375 28.730469 544.03125 32.292969 532.285156 C 35.859375 520.539062 39.707031 508.890625 43.84375 497.332031 C 47.976562 485.777344 52.394531 474.328125 57.089844 462.988281 C 61.789062 451.648438 66.761719 440.429688 72.007812 429.332031 C 77.257812 418.238281 82.773438 407.277344 88.558594 396.453125 C 94.34375 385.628906 100.394531 374.949219 106.703125 364.421875 C 113.015625 353.894531 119.578125 343.527344 126.398438 333.320312 C 133.21875 323.117188 140.28125 313.085938 147.59375 303.226562 C 154.90625 293.367188 162.457031 283.691406 170.242188 274.203125 C 178.027344 264.71875 186.042969 255.425781 194.285156 246.332031 C 202.53125 237.234375 210.992188 228.347656 219.667969 219.667969 C 228.347656 210.992188 237.234375 202.53125 246.332031 194.285156 C 255.425781 186.042969 264.714844 178.027344 274.203125 170.242188 C 283.691406 162.457031 293.367188 154.90625 303.226562 147.59375 C 313.085938 140.28125 323.117188 133.21875 333.320312 126.398438 C 343.527344 119.578125 353.894531 113.015625 364.421875 106.703125 C 374.949219 100.394531 385.628906 94.34375 396.453125 88.558594 C 407.277344 82.773438 418.238281 77.257812 429.332031 72.007812 C 440.429688 66.761719 451.648438 61.789062 462.988281 57.089844 C 474.328125 52.394531 485.777344 47.976562 497.332031 43.84375 C 508.890625 39.707031 520.539062 35.859375 532.285156 32.292969 C 544.03125 28.730469 555.859375 25.457031 567.765625 22.476562 C 579.671875 19.492188 591.644531 16.804688 603.683594 14.410156 C 615.71875 12.015625 627.808594 9.917969 639.953125 8.117188 C 652.09375 6.316406 664.273438 4.816406 676.488281 3.613281 C 688.703125 2.410156 700.941406 1.503906 713.199219 0.902344 C 725.457031 0.300781 737.726562 0 750 0 C 762.273438 0 774.542969 0.300781 786.800781 0.902344 C 799.058594 1.503906 811.296875 2.410156 823.511719 3.613281 C 835.726562 4.816406 847.90625 6.316406 860.046875 8.117188 C 872.1875 9.917969 884.277344 12.015625 896.316406 14.410156 C 908.355469 16.804688 920.328125 19.492188 932.234375 22.476562 C 944.140625 25.457031 955.96875 28.730469 967.714844 32.292969 C 979.460938 35.859375 991.109375 39.707031 1002.667969 43.84375 C 1014.222656 47.976562 1025.671875 52.394531 1037.011719 57.089844 C 1048.351562 61.789062 1059.570312 66.761719 1070.667969 72.007812 C 1081.761719 77.257812 1092.722656 82.773438 1103.546875 88.558594 C 1114.371094 94.34375 1125.046875 100.394531 1135.578125 106.703125 C 1146.105469 113.015625 1156.472656 119.578125 1166.675781 126.398438 C 1176.882812 133.21875 1186.914062 140.28125 1196.773438 147.59375 C 1206.632812 154.90625 1216.304688 162.457031 1225.792969 170.242188 C 1235.28125 178.027344 1244.574219 186.042969 1253.667969 194.285156 C 1262.761719 202.53125 1271.652344 210.992188 1280.328125 219.667969 C 1289.007812 228.347656 1297.46875 237.234375 1305.714844 246.332031 C 1313.957031 255.425781 1321.972656 264.71875 1329.757812 274.203125 C 1337.542969 283.691406 1345.09375 293.367188 1352.40625 303.226562 C 1359.71875 313.085938 1366.78125 323.117188 1373.601562 333.320312 C 1380.421875 343.527344 1386.984375 353.894531 1393.296875 364.421875 C 1399.605469 374.949219 1405.65625 385.628906 1411.441406 396.453125 C 1417.226562 407.277344 1422.742188 418.238281 1427.992188 429.332031 C 1433.238281 440.429688 1438.210938 451.648438 1442.910156 462.988281 C 1447.605469 474.328125 1452.023438 485.777344 1456.15625 497.332031 C 1460.292969 508.890625 1464.140625 520.539062 1467.703125 532.285156 C 1471.269531 544.03125 1474.539062 555.859375 1477.523438 567.765625 C 1480.503906 579.671875 1483.195312 591.644531 1485.589844 603.683594 C 1487.984375 615.71875 1490.082031 627.808594 1491.882812 639.953125 C 1493.683594 652.09375 1495.183594 664.273438 1496.386719 676.488281 C 1497.589844 688.703125 1498.492188 700.941406 1499.097656 713.199219 C 1499.699219 725.457031 1500 737.726562 1500 750 Z M 1500 750 "/></g><g clip-rule="nonzero" clip-path="url(#1753f55c6b)"><g clip-rule="nonzero" clip-path="url(#14b6b83606)"><path style=" stroke:none;fill-rule:nonzero;fill:#ccebf6;fill-opacity:1;" d="M 186.152344 264.351562 L 1313.011719 264.351562 L 1313.011719 1235.648438 L 186.152344 1235.648438 Z M 186.152344 264.351562 "/></g></g><g style="fill:#1487b8;fill-opacity:1;"><g transform="translate(344.700824, 959.553567)"><path style="stroke:none" d="M 331.578125 0 L 61.1875 0 C 53.800781 0 48.457031 -1.648438 45.15625 -4.953125 C 41.851562 -8.253906 40.203125 -13.597656 40.203125 -20.984375 L 40.203125 -398.59375 C 40.203125 -405.96875 41.851562 -411.304688 45.15625 -414.609375 C 48.457031 -417.910156 53.800781 -419.5625 61.1875 -419.5625 L 331.578125 -419.5625 C 338.953125 -419.5625 344.289062 -417.910156 347.59375 -414.609375 C 350.894531 -411.304688 352.546875 -405.96875 352.546875 -398.59375 L 352.546875 -330.40625 C 352.546875 -323.03125 350.894531 -317.691406 347.59375 -314.390625 C 344.289062 -311.085938 338.953125 -309.4375 331.578125 -309.4375 L 170.734375 -309.4375 L 170.734375 -264.5625 L 284.375 -264.5625 C 291.757812 -264.5625 297.101562 -262.910156 300.40625 -259.609375 C 303.707031 -256.304688 305.359375 -250.960938 305.359375 -243.578125 L 305.359375 -181.234375 C 305.359375 -173.847656 303.707031 -168.503906 300.40625 -165.203125 C 297.101562 -161.898438 291.757812 -160.25 284.375 -160.25 L 170.734375 -160.25 L 170.734375 -110.140625 L 331.578125 -110.140625 C 338.953125 -110.140625 344.289062 -108.488281 347.59375 -105.1875 C 350.894531 -101.882812 352.546875 -96.539062 352.546875 -89.15625 L 352.546875 -20.984375 C 352.546875 -13.597656 350.894531 -8.253906 347.59375 -4.953125 C 344.289062 -1.648438 338.953125 0 331.578125 0 Z M 331.578125 0 "/></g></g><g style="fill:#1487b8;fill-opacity:1;"><g transform="translate(725.804841, 959.553567)"><path style="stroke:none" d="M 165.5 -20.984375 C 165.5 -13.597656 163.847656 -8.253906 160.546875 -4.953125 C 157.242188 -1.648438 151.898438 0 144.515625 0 L 55.9375 0 C 48.5625 0 43.222656 -1.648438 39.921875 -4.953125 C 36.617188 -8.253906 34.96875 -13.597656 34.96875 -20.984375 L 34.96875 -83.328125 C 34.96875 -101.203125 36.519531 -114.601562 39.625 -123.53125 C 42.726562 -132.46875 48.554688 -142.957031 57.109375 -155 L 104.3125 -218.53125 L 57.109375 -282.046875 C 48.171875 -294.085938 42.242188 -304.570312 39.328125 -313.5 C 36.421875 -322.4375 34.96875 -335.84375 34.96875 -353.71875 L 34.96875 -398.59375 C 34.96875 -405.96875 36.617188 -411.304688 39.921875 -414.609375 C 43.222656 -417.910156 48.5625 -419.5625 55.9375 -419.5625 L 145.6875 -419.5625 C 153.0625 -419.5625 158.398438 -417.910156 161.703125 -414.609375 C 165.003906 -411.304688 166.65625 -405.96875 166.65625 -398.59375 L 166.65625 -358.375 C 166.65625 -354.488281 166.847656 -350.410156 167.234375 -346.140625 C 167.628906 -341.867188 169.1875 -337.789062 171.90625 -333.90625 L 197.546875 -297.1875 C 199.484375 -294.082031 201.519531 -291.65625 203.65625 -289.90625 C 205.800781 -288.15625 208.425781 -287.28125 211.53125 -287.28125 L 218.53125 -287.28125 C 221.632812 -287.28125 224.15625 -288.15625 226.09375 -289.90625 C 228.039062 -291.65625 230.179688 -294.082031 232.515625 -297.1875 L 258.734375 -333.90625 C 261.453125 -337.789062 263.003906 -341.867188 263.390625 -346.140625 C 263.785156 -350.410156 263.984375 -354.488281 263.984375 -358.375 L 263.984375 -398.59375 C 263.984375 -405.96875 265.632812 -411.304688 268.9375 -414.609375 C 272.238281 -417.910156 277.578125 -419.5625 284.953125 -419.5625 L 373.53125 -419.5625 C 380.914062 -419.5625 386.257812 -417.910156 389.5625 -414.609375 C 392.863281 -411.304688 394.515625 -405.96875 394.515625 -398.59375 L 394.515625 -353.71875 C 394.515625 -335.84375 392.957031 -322.4375 389.84375 -313.5 C 386.738281 -304.570312 380.914062 -294.085938 372.375 -282.046875 L 325.171875 -217.9375 L 372.375 -155 C 381.300781 -142.957031 387.222656 -132.46875 390.140625 -123.53125 C 393.054688 -114.601562 394.515625 -101.203125 394.515625 -83.328125 L 394.515625 -20.984375 C 394.515625 -13.597656 392.863281 -8.253906 389.5625 -4.953125 C 386.257812 -1.648438 380.914062 0 373.53125 0 L 284.953125 0 C 277.578125 0 272.238281 -1.648438 268.9375 -4.953125 C 265.632812 -8.253906 263.984375 -13.597656 263.984375 -20.984375 L 263.984375 -78.671875 C 263.984375 -82.554688 263.785156 -86.632812 263.390625 -90.90625 C 263.003906 -95.175781 261.453125 -99.253906 258.734375 -103.140625 L 233.09375 -139.859375 C 230.757812 -143.347656 228.617188 -145.867188 226.671875 -147.421875 C 224.734375 -148.984375 222.210938 -149.765625 219.109375 -149.765625 L 210.953125 -149.765625 C 207.835938 -149.765625 205.304688 -148.984375 203.359375 -147.421875 C 201.421875 -145.867188 199.289062 -143.347656 196.96875 -139.859375 L 170.734375 -103.140625 C 168.015625 -99.253906 166.460938 -95.175781 166.078125 -90.90625 C 165.691406 -86.632812 165.5 -82.554688 165.5 -78.671875 Z M 165.5 -20.984375 "/></g></g></g></svg>